<svg xmlns="http://www.w3.org/2000/svg" viewBox="0 0 100 100"><defs><linearGradient id="metal" x1=".15" y1="0" x2=".8" y2="1" gradientUnits="objectBoundingBox"><stop stop-color="#fff0ae"/><stop offset=".38" stop-color="#da9165"/><stop offset="1" stop-color="#784371"/></linearGradient><linearGradient id="glass" x1="0" y1="0" x2="1" y2="1"><stop stop-color="#e8ffff"/><stop offset=".4" stop-color="#64dfe9"/><stop offset="1" stop-color="#164780"/></linearGradient><linearGradient id="gold" x1="0" y1="0" x2="1" y2="1"><stop stop-color="#fff4ac"/><stop offset=".4" stop-color="#e7ae47"/><stop offset="1" stop-color="#654329"/></linearGradient><linearGradient id="tail"><stop stop-color="#b8f7ff" stop-opacity="0"/><stop offset="1" stop-color="#e9fdff"/></linearGradient></defs><path d="M11 25Q59-4 83 26L70 49Q57 22 27 44L70 66Q89 53 82 35L93 28Q111 68 72 84L15 56Q2 40 11 25Z" fill="url(#metal)" stroke="#ffcea6" stroke-width="1.4"/><path d="M11 25 27 44 70 66 72 84M15 56 27 44m56-18-13 23" stroke="#713e63" stroke-width="2" fill="none"/><path d="M14 29Q50 9 76 26" stroke="#fff0c0" stroke-width="4" fill="none"/></svg>